<svg width="29" height="23" viewBox="0 0 29 23" fill="none" xmlns="http://www.w3.org/2000/svg">
<path d="M0 1.5C0 0.67158 0.608619 0 1.35937 0H27.6406C28.3914 0 29 0.67158 29 1.5C29 2.32842 28.3914 3 27.6406 3H1.35937C0.608619 3 0 2.32842 0 1.5Z" fill="black"/>
<path d="M0 11.5C0 10.6716 0.608619 10 1.35937 10H27.6406C28.3914 10 29 10.6716 29 11.5C29 12.3284 28.3914 13 27.6406 13H1.35937C0.608619 13 0 12.3284 0 11.5Z" fill="black"/>
<path d="M1.35937 20C0.608619 20 0 20.6716 0 21.5C0 22.3284 0.608619 23 1.35937 23H27.6406C28.3914 23 29 22.3284 29 21.5C29 20.6716 28.3914 20 27.6406 20H1.35937Z" fill="black"/>
</svg>
