<svg width="22" height="27" viewBox="0 0 22 27" fill="none" xmlns="http://www.w3.org/2000/svg">
<path d="M11 17.1818C12.4587 17.1818 13.8576 16.6646 14.8891 15.744C15.9205 14.8233 16.5 13.5747 16.5 12.2727V4.90909C16.5 3.60712 15.9205 2.35847 14.8891 1.43784C13.8576 0.517206 12.4587 0 11 0C9.54131 0 8.14236 0.517206 7.11091 1.43784C6.07946 2.35847 5.5 3.60712 5.5 4.90909V12.2727C5.5 13.5747 6.07946 14.8233 7.11091 15.744C8.14236 16.6646 9.54131 17.1818 11 17.1818ZM8.25 4.90909C8.25 4.2581 8.53973 3.63378 9.05546 3.17347C9.57118 2.71315 10.2707 2.45455 11 2.45455C11.7293 2.45455 12.4288 2.71315 12.9445 3.17347C13.4603 3.63378 13.75 4.2581 13.75 4.90909V12.2727C13.75 12.9237 13.4603 13.548 12.9445 14.0084C12.4288 14.4687 11.7293 14.7273 11 14.7273C10.2707 14.7273 9.57118 14.4687 9.05546 14.0084C8.53973 13.548 8.25 12.9237 8.25 12.2727V4.90909ZM22 12.2727C22 11.9472 21.8551 11.6351 21.5973 11.4049C21.3394 11.1748 20.9897 11.0455 20.625 11.0455C20.2603 11.0455 19.9106 11.1748 19.6527 11.4049C19.3949 11.6351 19.25 11.9472 19.25 12.2727C19.25 14.2257 18.3808 16.0987 16.8336 17.4796C15.2865 18.8606 13.188 19.6364 11 19.6364C8.81196 19.6364 6.71354 18.8606 5.16637 17.4796C3.61919 16.0987 2.75 14.2257 2.75 12.2727C2.75 11.9472 2.60513 11.6351 2.34727 11.4049C2.08941 11.1748 1.73967 11.0455 1.375 11.0455C1.01033 11.0455 0.660591 11.1748 0.402728 11.4049C0.144866 11.6351 0 11.9472 0 12.2727C0.00242796 14.6626 0.981367 16.9696 2.7533 18.7613C4.52523 20.553 6.96847 21.7063 9.625 22.005V24.5455H6.875C6.51033 24.5455 6.16059 24.6748 5.90273 24.9049C5.64487 25.1351 5.5 25.4472 5.5 25.7727C5.5 26.0982 5.64487 26.4104 5.90273 26.6405C6.16059 26.8707 6.51033 27 6.875 27H15.125C15.4897 27 15.8394 26.8707 16.0973 26.6405C16.3551 26.4104 16.5 26.0982 16.5 25.7727C16.5 25.4472 16.3551 25.1351 16.0973 24.9049C15.8394 24.6748 15.4897 24.5455 15.125 24.5455H12.375V22.005C15.0315 21.7063 17.4748 20.553 19.2467 18.7613C21.0186 16.9696 21.9976 14.6626 22 12.2727Z" fill="black"/>
</svg>
