<svg width="39" height="38" viewBox="0 0 39 38" fill="none" xmlns="http://www.w3.org/2000/svg">
<path d="M5.20225 30.4223C5.20225 30.4223 9.32593 25.3 19.5009 25.3C29.6759 25.3 33.7997 30.4223 33.7997 30.4223M19.5 1C9.28273 1 1 9.05887 1 19C1 28.941 9.28273 37 19.5 37C29.7172 37 38 28.941 38 19C38 9.05887 29.7172 1 19.5 1ZM19.5 19C22.5653 19 25.05 16.5824 25.05 13.6C25.05 10.6177 22.5653 8.2 19.5 8.2C16.4347 8.2 13.95 10.6177 13.95 13.6C13.95 16.5824 16.4347 19 19.5 19Z" stroke="black" stroke-width="2" stroke-linecap="round" stroke-linejoin="round"/>
</svg>
