<svg width="38" height="36" viewBox="0 0 38 36" fill="none" xmlns="http://www.w3.org/2000/svg">
<path d="M35.625 9H28.5V7.2C28.5 5.29044 27.4991 3.45909 25.7175 2.10883C23.9359 0.758569 21.5196 0 19 0C16.4804 0 14.0641 0.758569 12.2825 2.10883C10.5009 3.45909 9.5 5.29044 9.5 7.2V9H2.375C1.74511 9 1.14102 9.18964 0.695622 9.52721C0.250223 9.86477 0 10.3226 0 10.8V30.6C0 32.0322 0.750668 33.4057 2.08686 34.4184C3.42306 35.4311 5.23533 36 7.125 36H30.875C32.7647 36 34.5769 35.4311 35.9131 34.4184C37.2493 33.4057 38 32.0322 38 30.6V10.8C38 10.3226 37.7498 9.86477 37.3044 9.52721C36.859 9.18964 36.2549 9 35.625 9ZM14.25 7.2C14.25 6.24522 14.7504 5.32955 15.6412 4.65442C16.532 3.97928 17.7402 3.6 19 3.6C20.2598 3.6 21.468 3.97928 22.3588 4.65442C23.2496 5.32955 23.75 6.24522 23.75 7.2V9H14.25V7.2ZM33.25 30.6C33.25 31.0774 32.9998 31.5352 32.5544 31.8728C32.109 32.2104 31.5049 32.4 30.875 32.4H7.125C6.49511 32.4 5.89102 32.2104 5.44562 31.8728C5.00022 31.5352 4.75 31.0774 4.75 30.6V12.6H9.5V14.4C9.5 14.8774 9.75022 15.3352 10.1956 15.6728C10.641 16.0104 11.2451 16.2 11.875 16.2C12.5049 16.2 13.109 16.0104 13.5544 15.6728C13.9998 15.3352 14.25 14.8774 14.25 14.4V12.6H23.75V14.4C23.75 14.8774 24.0002 15.3352 24.4456 15.6728C24.891 16.0104 25.4951 16.2 26.125 16.2C26.7549 16.2 27.359 16.0104 27.8044 15.6728C28.2498 15.3352 28.5 14.8774 28.5 14.4V12.6H33.25V30.6Z" fill="black"/>
</svg>
